#!OML:ASF \\Waltz\H\Terrain\Patient Classification 1\Animal2\Wednesday\Animal2.ASF
:FULLY-SPECIFIED
:DEGREES
2690
root 10.7179 17.6761 -3.36906 13.4037 6.74518 -0.0103507
lowerback 5.84356 -0.555303 3.3696
upperback -7.68337 -0.310195 0.472175
thorax -11.5701 -0.409173 -1.33015
lowerneck 15.693 15.6835 19.5566
upperneck 1.22248 23.8964 -7.70654
head 1.14187 12.2573 -5.29616
rclavicle -4.50876e-015 -8.34896e-015
rhumerus -47.9441 -22.0672 -47.6039
rradius 139.968
rwrist 13.2576
rhand -45.3637 28.0393
rfingers 7.12502
rthumb -18.1336 -1.13545
lclavicle -4.50876e-015 -8.34896e-015
lhumerus -52.8285 16.6217 57.0999
lradius 129.171
lwrist -18.8741
lhand -55.7201 -9.37554
lfingers 7.12502
lthumb -28.0687 18.5446
rfemur -21.9539 2.11842 13.6189
rtibia 31.1699
rfoot -24.6392 -4.0502
rtoes 23.6743
lfemur -25.2326 -5.9544 -9.43501
ltibia 30.8033
lfoot -18.4691 3.39352
ltoes -34.1302
2691
root 10.7371 17.6822 -3.34309 13.467 6.61612 -0.137939
lowerback 5.56106 -0.491499 3.56462
upperback -7.67712 -0.21246 0.488607
thorax -11.3881 -0.37504 -1.43848
lowerneck 15.6795 15.6032 19.6495
upperneck 1.1705 23.805 -7.91246
head 1.15152 12.2173 -5.36943
rclavicle 1.47617e-014 -1.82882e-014
rhumerus -47.7082 -21.9218 -47.97
rradius 139.895
rwrist 14.1046
rhand -45.5766 28.174
rfingers 7.12502
rthumb -18.3384 -0.981623
lclavicle 1.47617e-014 -1.82882e-014
lhumerus -53.2345 16.2133 57.5361
lradius 128.827
lwrist -19.0089
lhand -56.3039 -9.65277
lfingers 7.12502
lthumb -28.6266 18.1746
rfemur -21.7824 2.15078 13.6765
rtibia 30.7943
rfoot -24.473 -4.02069
rtoes 23.3441
lfemur -25.1609 -5.96698 -9.37164
ltibia 30.7832
lfoot -18.6493 3.6342
ltoes -34.0435
2692
root 10.7587 17.6857 -3.31545 13.4687 6.47251 -0.290036
lowerback 5.36609 -0.419363 3.8131
upperback -7.68083 -0.0958534 0.492778
thorax -11.2705 -0.337618 -1.5916
lowerneck 15.769 15.6335 19.407
upperneck 0.943407 23.8185 -7.73592
head 1.02177 12.2085 -5.31911
rclavicle -8.43757e-015 -8.34896e-015
rhumerus -47.5664 -21.728 -48.3552
rradius 139.923
rwrist 14.8181
rhand -45.5539 28.3106
rfingers 7.12502
rthumb -18.3166 -0.84705
lclavicle -8.43757e-015 -8.34896e-015
lhumerus -53.4954 15.6876 58.0813
lradius 128.544
lwrist -19.2002
lhand -56.492 -8.11134
lfingers 7.12502
lthumb -28.8063 19.6856
rfemur -21.4971 2.14815 13.7591
rtibia 30.3585
rfoot -24.3116 -4.01592
rtoes 22.8643
lfemur -25.0188 -5.95813 -9.29763
ltibia 30.8255
lfoot -18.9116 3.60331
ltoes -33.7215
2693
root 10.787 17.6927 -3.29066 13.5146 6.45472 -0.514829
lowerback 5.20213 -0.385079 4.22165
upperback -7.75068 -0.0100163 0.505533
thorax -11.251 -0.330307 -1.81929
lowerneck 15.731 15.5717 19.448
upperneck 1.03514 23.7392 -7.71914
head 1.04756 12.1721 -5.31548
rclavicle -4.45712e-015 1.15295e-014
rhumerus -47.5792 -21.5138 -48.6701
rradius 140.07
rwrist 15.3249
rhand -45.5666 28.7667
rfingers 7.12502
rthumb -18.3288 -0.389731
lclavicle -4.45712e-015 1.15295e-014
lhumerus -53.5444 15.2834 58.8366
lradius 128.197
lwrist -19.1823
lhand -56.3007 -7.07833
lfingers 7.12502
lthumb -28.6235 20.7495
rfemur -21.2154 1.96664 13.9327
rtibia 29.8977
rfoot -24.2551 -3.75797
rtoes 23.1274
lfemur -25.0001 -5.90513 -9.14859
ltibia 30.9127
lfoot -19.0943 3.35844
ltoes -33.1112
2694
root 10.8167 17.7007 -3.26379 13.5813 6.43747 -0.731712
lowerback 4.94438 -0.314955 4.60167
upperback -7.76263 0.110877 0.498503
thorax -11.1047 -0.30116 -2.05742
lowerneck 15.3241 15.494 19.586
upperneck 1.42893 23.5898 -7.65902
head 1.21593 12.1065 -5.26224
rclavicle 1.00433e-014 1.66979e-014
rhumerus -47.5275 -21.4161 -49.0972
rradius 140.08
rwrist 16.0482
rhand -46.0145 29.5772
rfingers 7.12502
rthumb -18.7596 0.461774
lclavicle 1.00433e-014 1.66979e-014
lhumerus -53.4206 14.9273 59.8405
lradius 127.752
lwrist -18.736
lhand -56.5525 -7.20912
lfingers 7.12502
lthumb -28.8641 20.5779
rfemur -20.9731 1.81383 14.0903
rtibia 29.4668
rfoot -24.1964 -3.57349
rtoes 23.1015
lfemur -24.9979 -5.87159 -9.00428
ltibia 31.0101
lfoot -19.3283 3.12198
ltoes -31.9311
2695
root 10.8467 17.7073 -3.23562 13.7521 6.33603 -0.741043
lowerback 4.61001 -0.220269 4.72781
upperback -7.78035 0.228349 0.446413
thorax -10.9141 -0.253369 -2.20035
lowerneck 14.8788 15.5703 19.4598
upperneck 1.7759 23.5891 -7.2705
head 1.32605 12.1003 -5.08258
rclavicle 1.11273e-014 2.78299e-015
rhumerus -47.3075 -21.2173 -49.692
rradius 139.889
rwrist 16.9166
rhand -46.4181 30.4679
rfingers 7.12502
rthumb -19.1478 1.39049
lclavicle 1.11273e-014 2.78299e-015
lhumerus -53.3576 14.5747 60.7311
lradius 127.277
lwrist -18.1044
lhand -56.6776 -7.83906
lfingers 7.12502
lthumb -28.9836 19.9275
rfemur -20.8715 1.76508 13.9917
rtibia 29.0745
rfoot -24.0316 -3.49035
rtoes 23.1414
lfemur -25.0505 -5.85095 -9.09078
ltibia 31.1136
lfoot -19.6151 3.00786
ltoes -30.7774
2696
root 10.878 17.7115 -3.20654 13.9073 6.17999 -0.727862
lowerback 4.38613 -0.0865692 4.79664
upperback -7.85124 0.400244 0.388564
thorax -10.8456 -0.177986 -2.32387
lowerneck 14.5343 15.5676 19.4317
upperneck 1.98953 23.5188 -7.05737
head 1.4039 12.0624 -4.98268
rclavicle 9.61931e-015 -2.34566e-014
rhumerus -47.2918 -20.9984 -50.1671
rradius 139.709
rwrist 17.8625
rhand -46.7052 31.0868
rfingers 7.12502
rthumb -19.4239 2.03694
lclavicle 9.61931e-015 -2.34566e-014
lhumerus -53.3909 14.0798 61.6263
lradius 126.556
lwrist -17.9186
lhand -56.7014 -7.54015
lfingers 7.12502
lthumb -29.0063 20.2225
rfemur -20.7752 1.77792 13.8499
rtibia 28.7458
rfoot -23.92 -3.25429
rtoes 23.7567
lfemur -25.0463 -5.65366 -9.24341
ltibia 31.2058
lfoot -19.9727 2.56257
ltoes -29.1035
